<?xml version="1.0" encoding="UTF-8" standalone="no"?>
<!-- Created with Inkscape (http://www.inkscape.org/) -->
<svg
   xmlns:svg="http://www.w3.org/2000/svg"
   xmlns="http://www.w3.org/2000/svg"
   version="1.0"
   width="799.99915"
   height="354.89401"
   id="svg2">
  <defs
     id="defs4" />
  <g
     transform="translate(25.714283,-292.3296)"
     id="layer1">
    <path
       d="M 25.483029,368.79812 L 11.105497,295.70707 C 10.815139,294.32646 10.233944,293.41838 9.3619093,292.98282 C 8.4898044,292.54742 7.5096953,292.32968 6.4215793,292.3296 L -6.5431319,292.3296 C -7.487247,292.32968 -8.5399362,292.71086 -9.7012025,293.47315 C -10.862501,294.2356 -11.588302,295.37915 -11.878609,296.90381 L -25.49488,368.79812 C -25.641149,369.37877 -25.714283,369.92395 -25.714283,370.43367 C -25.714283,371.81214 -25.369112,372.75568 -24.678768,373.2643 C -23.988427,373.77291 -23.316368,374.02722 -22.662589,374.02722 L -17.107709,374.02722 C -16.527077,374.02722 -15.946436,373.88206 -15.365784,373.59174 C -14.785153,373.30142 -14.458266,372.82937 -14.38512,372.17559 L -12.098012,360.08517 C -11.880839,359.21201 -11.627086,358.59424 -11.336751,358.23188 C -11.046445,357.86955 -10.537829,357.68838 -9.8109039,357.68836 L 8.3795831,357.68836 C 9.6139656,357.68838 10.412901,358.48731 10.776393,360.08517 L 12.957123,372.17559 C 13.174271,373.41001 14.22696,374.02722 16.115194,374.02722 L 21.995854,374.02722 C 24.46464,374.02722 25.699056,372.82937 25.699108,370.43367 C 25.699056,369.92395 25.62703,369.37877 25.483029,368.79812 L 25.483029,368.79812 z M 7.8377247,344.18179 C 7.8376911,345.92375 7.0387554,346.79471 5.4409153,346.79468 L -6.8689118,346.79468 C -7.4495718,346.79471 -7.9759164,346.59525 -8.4479471,346.19631 C -8.9200124,345.79742 -9.1560364,345.27108 -9.1560198,344.61727 C -9.1560364,344.6173 -9.1560364,344.54417 -9.1560198,344.39787 C -9.1560364,344.25385 -9.1560364,344.18182 -9.1560198,344.18179 L -2.2946958,307.14261 C -2.0043986,305.98139 -1.4237574,305.40075 -0.55277045,305.40068 C 0.32038235,305.40075 0.90213163,305.98139 1.1924791,307.14261 L 7.8377247,344.18179 z M 88.152449,349.08179 C 88.152397,346.9033 87.843793,344.90651 87.226635,343.09143 C 86.609376,341.2764 85.792157,339.7151 84.774975,338.40751 C 83.757697,337.09999 82.759304,336.01074 81.779795,335.13974 C 80.800194,334.26881 79.620074,333.32472 78.239431,332.30745 C 76.424332,330.9268 75.516803,329.98271 75.516842,329.47516 C 75.516803,328.67516 76.315738,327.47731 77.913651,325.8816 C 79.87272,324.06438 81.43347,322.10305 82.595907,319.99762 C 83.758251,317.89229 84.339446,315.06001 84.339494,311.50075 C 84.339446,305.11154 82.36039,300.31903 78.402321,297.12321 C 74.444168,293.92755 69.197343,292.32968 62.661832,292.3296 L 38.697062,292.3296 C 38.116419,292.32968 37.590074,292.54742 37.118027,292.98282 C 36.645978,293.41838 36.409954,293.96301 36.409954,294.6167 L 36.409954,371.74011 C 36.409954,372.39389 36.645978,372.93852 37.118027,373.374 C 37.590074,373.80948 38.116419,374.02722 38.697062,374.02722 L 62.661832,374.02722 C 70.722081,374.02722 76.985581,371.86699 81.452353,367.54653 C 85.919034,363.22608 88.152397,357.07117 88.152449,349.08179 L 88.152449,349.08179 z M 71.268406,313.57178 C 71.268371,321.55898 67.45542,325.55255 59.829541,325.5525 L 51.661773,325.5525 C 51.078901,325.55255 50.569732,325.31652 50.134264,324.84443 C 49.69877,324.37243 49.481029,323.80952 49.481042,323.15569 L 49.481042,304.9652 C 49.481029,303.44053 50.243398,302.67817 51.76815,302.67809 L 59.39406,302.67809 C 62.733832,302.67817 65.547836,303.65827 67.836082,305.61842 C 70.124264,307.57871 71.268371,310.22983 71.268406,313.57178 L 71.268406,313.57178 z M 75.081361,348.64631 C 75.081322,352.20553 73.992066,355.14696 71.813588,357.47062 C 69.63504,359.79431 66.766185,360.95615 63.207015,360.95613 L 51.661773,360.95613 C 51.078901,360.95615 50.569732,360.73841 50.134264,360.30291 C 49.69877,359.86744 49.481029,359.35828 49.481042,358.7754 L 49.481042,337.31714 C 49.481029,336.6634 49.69877,336.08276 50.134264,335.57522 C 50.569732,335.06775 51.11436,334.814 51.76815,334.81396 L 62.771533,334.81396 C 66.691943,334.814 69.723688,336.12099 71.866777,338.73495 C 74.009795,341.34898 75.081322,344.65276 75.081361,348.64631 L 75.081361,348.64631 z M 150.70219,348.97209 C 150.70214,348.02802 150.5387,347.24736 150.21186,346.63013 C 149.88492,346.01295 149.24943,345.70434 148.30538,345.70431 L 139.91821,345.70431 C 138.39343,345.70434 137.63107,346.39468 137.6311,347.77534 C 137.63107,351.69581 136.48696,354.87271 134.19878,357.30607 C 131.91053,359.73946 128.76964,360.95615 124.77609,360.95613 C 120.27278,360.95615 117.02274,359.77603 115.02597,357.41577 C 113.02917,355.05555 112.03077,351.55175 112.03079,346.90438 L 112.03079,308.12327 C 112.03077,306.52547 112.53939,305.21847 113.55663,304.20228 C 114.57385,303.18623 115.8814,302.67817 117.47929,302.67809 L 131.85682,302.67809 C 132.51056,302.67817 133.09176,302.87762 133.60041,303.27647 C 134.10899,303.67545 134.3633,304.20179 134.36333,304.8555 L 134.36333,314.33304 C 134.3633,315.85783 135.12567,316.6202 136.65044,316.62015 L 143.83754,316.62015 C 144.85473,316.6202 145.43648,316.00299 145.58279,314.76852 L 147.43442,299.52002 C 147.43437,297.34159 146.79888,295.59855 145.52794,294.29092 C 144.25691,292.98345 142.64076,292.32968 140.67947,292.3296 L 112.90175,292.3296 C 109.05443,292.32968 105.76893,293.60066 103.04524,296.14255 C 100.32155,298.6846 98.959698,302.06096 98.959698,306.27165 L 98.959698,348.86571 C 98.959698,356.99914 100.97477,363.22608 105.00491,367.54653 C 109.03504,371.86699 115.62543,374.02722 124.77609,374.02722 C 132.69229,374.02722 138.99236,371.83043 143.67632,367.43683 C 148.36018,363.04324 150.70214,356.88833 150.70219,348.97209 L 150.70219,348.97209 z M 213.25194,353.76571 L 213.25194,312.15563 C 213.25188,306.56425 211.56315,301.86205 208.18573,298.04903 C 204.80821,294.23615 200.39689,292.32968 194.95175,292.3296 L 163.68685,292.3296 C 163.1062,292.32968 162.59814,292.54742 162.16266,292.98282 C 161.72718,293.41838 161.50944,293.96301 161.50944,294.6167 L 161.50944,301.37165 C 161.50944,301.87923 161.72718,302.27814 162.16266,302.56839 C 162.59814,302.85879 163.25136,303.14911 164.12233,303.43936 C 165.06642,303.87602 165.77449,304.25775 166.24655,304.58457 C 166.71859,304.91153 166.95461,305.36529 166.95462,305.94587 L 166.95462,359.21421 C 166.95461,359.79486 166.71859,360.24863 166.24655,360.5755 C 165.77449,360.9024 165.06642,361.24647 164.12233,361.60769 C 163.25136,361.90024 162.59814,362.19167 162.16266,362.48198 C 161.72718,362.77231 161.50944,363.17123 161.50944,363.67872 L 161.50944,371.63041 C 161.50944,372.28419 161.72718,372.8471 162.16266,373.31915 C 162.59814,373.7912 163.14277,374.02722 163.79655,374.02722 L 192.44524,374.02722 C 198.4001,374.02722 203.35661,372.15731 207.31476,368.41749 C 211.27283,364.67768 213.25188,359.79376 213.25194,353.76571 L 213.25194,353.76571 z M 200.18085,353.656 C 200.18081,355.98081 199.41789,357.77869 197.89208,359.04966 C 196.3662,360.32065 194.44199,360.95615 192.11946,360.95613 L 182.31614,360.95613 C 180.79138,360.95615 180.02901,360.19378 180.02903,358.66903 L 180.02903,304.9652 C 180.02901,303.44053 180.79138,302.67817 182.31614,302.67809 L 192.11946,302.67809 C 194.58826,302.67817 196.54903,303.65827 198.00178,305.61842 C 199.45445,307.57871 200.18081,309.86637 200.18085,312.48141 L 200.18085,353.656 z M 275.80168,371.74011 L 275.80168,363.35294 C 275.80163,362.69918 275.58389,362.13627 275.14846,361.66421 C 274.71293,361.19217 274.20376,360.95615 273.62095,360.95613 L 239.41738,360.95613 C 238.76359,360.95615 238.21896,360.72012 237.7835,360.24806 C 237.348,359.77603 237.13026,359.21311 237.13027,358.55932 L 237.13027,333.83329 C 237.13026,332.30638 237.89263,331.5429 239.41738,331.54286 L 260.44348,331.54286 C 261.96818,331.5429 262.73055,330.78053 262.73059,329.25575 L 262.73059,323.59117 C 262.73055,322.93966 262.51226,322.37786 262.07571,321.90576 C 261.63908,321.43376 261.09501,321.19774 260.44348,321.19769 L 239.41738,321.19769 C 238.76359,321.19774 238.21896,320.96171 237.7835,320.48961 C 237.348,320.01762 237.13026,319.45471 237.13027,318.80088 L 237.13027,304.9652 C 237.13026,303.44053 237.89263,302.67817 239.41738,302.67809 L 270.2468,302.67809 C 270.90053,302.67817 271.44516,302.46043 271.88069,302.02487 C 272.31612,301.58946 272.53386,301.0814 272.53391,300.50069 L 272.53391,294.6167 C 272.53386,293.96301 272.27955,293.41838 271.77098,292.98282 C 271.26232,292.54742 270.68113,292.32968 270.0274,292.3296 L 226.34629,292.3296 C 224.82155,292.32968 224.05919,293.09205 224.05919,294.6167 L 224.05919,371.74011 C 224.05919,373.26485 224.82155,374.02722 226.34629,374.02722 L 273.62095,374.02722 C 274.20376,374.02722 274.71293,373.80948 275.14846,373.374 C 275.58389,372.93852 275.80163,372.39389 275.80168,371.74011 L 275.80168,371.74011 z M 338.35142,300.50069 L 338.35142,294.6167 C 338.35137,293.96301 338.09706,293.41838 337.5885,292.98282 C 337.07983,292.54742 336.49864,292.32968 335.84491,292.3296 L 299.68002,292.3296 C 295.17893,292.32968 291.87514,293.32807 289.76866,295.32478 C 287.66217,297.32164 286.60893,299.77274 286.60893,302.67809 L 286.60893,371.74011 C 286.60893,373.26485 287.3713,374.02722 288.89604,374.02722 L 297.39291,374.02722 C 298.91764,374.02722 299.68,373.26485 299.68002,371.74011 L 299.68002,346.90438 C 299.68,345.37967 300.44237,344.6173 301.96712,344.61727 L 322.99323,344.61727 C 324.51793,344.6173 325.2803,343.85493 325.28034,342.33016 L 325.28034,335.03004 C 325.2803,334.3763 325.062,333.81339 324.62545,333.3413 C 324.18882,332.86929 323.64475,332.63327 322.99323,332.63323 L 301.86075,332.63323 C 301.27788,332.63327 300.76871,332.39724 300.33324,331.92515 C 299.89774,331.45315 299.68,330.89024 299.68002,330.23642 L 299.68002,308.99756 C 299.68,307.25349 300.17034,305.76421 301.15101,304.52972 C 302.13166,303.29537 303.4575,302.67817 305.12852,302.67809 L 336.17069,302.67809 C 336.7535,302.67817 337.26267,302.46043 337.6982,302.02487 C 338.13363,301.58946 338.35137,301.0814 338.35142,300.50069 L 338.35142,300.50069 z M 400.90117,371.74011 L 400.90117,332.19774 C 400.90112,330.67305 400.13875,329.91068 398.61406,329.91064 L 374.32018,329.91064 C 373.66638,329.91068 373.12176,330.12842 372.6863,330.56386 C 372.25079,330.99938 372.03305,331.50744 372.03308,332.08804 L 372.03308,337.86233 C 372.03305,338.51614 372.25079,339.07905 372.6863,339.55106 C 373.12176,340.02315 373.66638,340.25917 374.32018,340.25914 L 385.54297,340.25914 C 386.19449,340.25917 386.73857,340.47691 387.17519,340.91236 C 387.61175,341.34787 387.83004,341.85593 387.83008,342.43654 L 387.83008,353.87541 C 387.83004,355.25611 387.33971,356.4728 386.35908,357.52547 C 385.37838,358.57818 384.14341,359.43141 382.65417,360.08517 C 381.16486,360.73896 379.63956,361.22929 378.07829,361.55617 C 376.51696,361.88307 375.1191,362.04651 373.8847,362.0465 C 371.27179,362.04651 368.67608,361.30187 366.09757,359.81258 C 363.51901,358.32332 362.22975,356.34426 362.22976,353.87541 L 362.22976,310.0846 C 362.22975,308.85025 362.28404,307.85186 362.39265,307.08942 C 362.50123,306.32712 362.73725,305.65561 363.10072,305.0749 C 364.11794,303.4771 366.18786,302.67817 369.31049,302.67809 L 382.0558,302.67809 C 382.70954,302.67817 383.29073,302.89591 383.79938,303.33132 C 384.30796,303.76687 384.56227,304.3115 384.56231,304.9652 L 384.56231,308.99756 C 384.56227,309.64918 384.78001,310.21099 385.21553,310.68297 C 385.65097,311.15508 386.1956,311.39111 386.84941,311.39105 L 395.34629,311.39105 C 396.00002,311.39111 396.54464,311.15508 396.98017,310.68297 C 397.41561,310.21099 397.63335,309.64918 397.63339,308.99756 L 397.63339,302.67809 C 397.63335,299.40929 396.48924,296.86732 394.20107,295.05218 C 391.91281,293.23721 389.13537,292.32968 385.86875,292.3296 L 362.22976,292.3296 C 358.67277,292.32968 355.60501,293.54581 353.02648,295.978 C 350.44794,298.41034 349.15867,301.51467 349.15867,305.29098 L 349.15867,354.63667 C 349.15867,360.52067 350.93772,365.40514 354.49581,369.29012 C 358.0539,373.1751 362.73836,375.11759 368.54923,375.11759 C 372.17932,375.11759 375.5374,374.42724 378.62347,373.04656 C 381.70948,371.66587 384.3063,369.59595 386.41393,366.83679 C 386.63108,366.54648 386.84827,366.40132 387.06549,366.40131 C 387.57518,366.40132 388.37411,367.41855 389.4623,369.45301 C 390.26231,370.90461 390.95265,372.02988 391.53333,372.82882 C 392.11393,373.62775 392.76771,374.02722 393.49466,374.02722 L 398.72044,374.02722 C 399.30324,374.02722 399.81241,373.80948 400.24795,373.374 C 400.68337,372.93852 400.90112,372.39389 400.90117,371.74011 L 400.90117,371.74011 z M 463.45091,371.52071 L 463.45091,294.507 C 463.45086,293.92644 463.23312,293.41838 462.79769,292.98282 C 462.36216,292.54742 461.81753,292.32968 461.1638,292.3296 L 452.77663,292.3296 C 452.12282,292.32968 451.5599,292.54742 451.0879,292.98282 C 450.61581,293.41838 450.37978,293.92644 450.37982,294.507 L 450.37982,320.6525 C 450.37978,321.2332 450.16149,321.74126 449.72494,322.17669 C 449.28831,322.61222 448.74424,322.82996 448.09271,322.82991 L 427.06661,322.82991 C 426.41282,322.82996 425.86819,322.59394 425.43273,322.12184 C 424.99723,321.64984 424.77949,321.08693 424.7795,320.4331 L 424.7795,294.6167 C 424.77949,293.96301 424.56175,293.41838 424.12628,292.98282 C 423.69079,292.54742 423.18273,292.32968 422.6021,292.3296 L 413.88582,292.3296 C 413.30518,292.32968 412.79712,292.58398 412.36164,293.09252 C 411.92616,293.60121 411.70842,294.18241 411.70842,294.83611 L 411.70842,371.84982 C 411.70842,372.43046 411.92616,372.93852 412.36164,373.374 C 412.79712,373.80948 413.34175,374.02722 413.99552,374.02722 L 422.38269,374.02722 C 423.03646,374.02722 423.59937,373.80948 424.07143,373.374 C 424.54347,372.93852 424.77949,372.43046 424.7795,371.84982 L 424.7795,338.18811 C 424.77949,336.6634 425.54186,335.90104 427.06661,335.901 L 448.19909,335.901 C 448.7797,335.90104 449.28831,336.13706 449.72494,336.60907 C 450.16149,337.08116 450.37978,337.64407 450.37982,338.29781 L 450.37982,371.74011 C 450.37978,372.32076 450.59752,372.8471 451.03304,373.31915 C 451.46849,373.7912 452.01311,374.02722 452.66693,374.02722 L 461.1638,374.02722 C 461.81753,374.02722 462.36216,373.77291 462.79769,373.2643 C 463.23312,372.75568 463.45086,372.17449 463.45091,371.52071 L 463.45091,371.52071 z M 512.92957,371.74011 L 512.92957,362.80776 C 512.92953,361.71741 512.31232,361.1002 511.07794,360.95613 L 500.72944,360.08517 C 500.14656,360.08518 499.85513,359.79486 499.85515,359.21421 L 499.85515,305.18461 C 499.85513,304.74809 500.10944,304.36635 500.61808,304.03939 C 501.12667,303.71257 501.81645,303.33083 502.68744,302.89417 C 503.56059,302.45987 504.21492,302.09752 504.65043,301.80713 C 505.08588,301.51688 505.30363,301.19 505.30366,300.82647 L 505.30366,294.507 C 505.30363,293.92644 505.04932,293.41838 504.54073,292.98282 C 504.03209,292.54742 503.45089,292.32968 502.79715,292.3296 L 484.17118,292.3296 C 483.59053,292.32968 483.06418,292.54742 482.59214,292.98282 C 482.12009,293.41838 481.88406,293.96301 481.88407,294.6167 L 481.88407,300.82647 C 481.88406,301.19 482.1018,301.51688 482.53729,301.80713 C 482.97276,302.09752 483.62599,302.45987 484.49696,302.89417 C 485.44104,303.33083 486.14911,303.71257 486.62118,304.03939 C 487.09321,304.36635 487.32923,304.74809 487.32925,305.18461 L 487.32925,359.21421 C 487.32923,359.79486 487.00235,360.08518 486.34858,360.08517 L 476.10979,361.06583 C 474.87537,361.2099 474.25816,361.79054 474.25816,362.80776 L 474.25816,371.74011 C 474.25816,373.26485 475.02053,374.02722 476.54527,374.02722 L 510.74884,374.02722 C 511.32944,374.02722 511.83805,373.80948 512.27468,373.374 C 512.71123,372.93852 512.92953,372.39389 512.92957,371.74011 L 512.92957,371.74011 z M 575.5724,353.87541 L 575.5724,294.6167 C 575.57235,293.09205 574.80998,292.32968 573.28529,292.3296 L 543.76564,292.3296 C 543.11185,292.32968 542.53065,292.54742 542.02206,292.98282 C 541.51342,293.41838 541.25911,293.96301 541.25913,294.6167 L 541.25913,300.50069 C 541.25911,301.0814 541.47686,301.58946 541.91235,302.02487 C 542.34782,302.46043 542.89245,302.67817 543.54624,302.67809 L 560.2142,302.67809 C 561.73891,302.67817 562.50127,303.44053 562.50131,304.9652 L 562.50131,353.87541 C 562.50127,356.27113 561.9018,358.05017 560.70287,359.21255 C 559.50388,360.37495 557.77858,360.95615 555.52696,360.95613 L 543.76564,360.95613 C 539.1892,360.95615 536.90098,358.59591 536.90099,353.87541 L 536.90099,348.43023 C 536.90098,347.77648 536.70152,347.15872 536.30262,346.57694 C 535.9037,345.99522 535.34079,345.70434 534.61389,345.70431 L 526.22672,345.70431 C 525.28262,345.70434 524.64713,345.94037 524.32024,346.41239 C 523.99335,346.88446 523.82991,347.55708 523.82991,348.43023 L 523.82991,353.87541 C 523.82991,360.33783 525.28206,365.31206 528.18638,368.79812 C 531.09069,372.28419 535.44827,374.02722 541.25913,374.02722 L 558.03347,374.02722 C 563.77115,374.02722 568.12873,372.22989 571.10622,368.63523 C 574.08363,365.04058 575.57235,360.12064 575.5724,353.87541 L 575.5724,353.87541 z M 637.03178,369.45301 L 614.26708,329.36545 C 614.26705,329.29236 614.23048,329.18377 614.15737,329.03967 C 614.01108,328.82253 613.93794,328.64081 613.93797,328.49449 C 613.93794,328.13108 614.04765,327.84076 614.26708,327.62353 L 637.03178,296.68773 C 637.75864,295.67058 638.12209,294.79851 638.12214,294.07152 C 638.12209,292.91032 637.03284,292.32968 634.85437,292.3296 L 628.97039,292.3296 C 628.09938,292.32968 627.22842,292.87486 626.3575,293.96514 C 626.28433,294.03614 626.21119,294.10817 626.1381,294.18122 L 601.30237,326.64286 L 601.30237,326.64286 C 600.72171,327.36982 600.14107,327.73328 599.56044,327.73323 C 598.76038,327.58701 598.36036,327.22355 598.36037,326.64286 L 598.36037,294.6167 C 598.36036,294.03614 598.14262,293.5098 597.70715,293.03767 C 597.27166,292.5657 596.7636,292.32968 596.18297,292.3296 L 588.55706,292.3296 C 587.97641,292.32968 587.46835,292.60227 587.03287,293.14737 C 586.59739,293.69263 586.37965,294.25554 586.37965,294.83611 L 586.37965,371.84982 C 586.37965,372.43046 586.59739,372.93852 587.03287,373.374 C 587.46835,373.80948 588.01298,374.02722 588.66676,374.02722 L 595.96689,374.02722 C 596.54752,374.02722 597.09159,373.80948 597.59911,373.374 C 598.10661,372.93852 598.36036,372.43046 598.36037,371.84982 L 598.36037,351.80438 C 598.36036,350.42593 598.72382,349.26465 599.45074,348.32053 L 603.80888,342.43654 C 604.09918,342.0022 604.46263,341.74845 604.89924,341.67528 C 605.55078,341.67531 606.02283,341.92907 606.31539,342.43654 L 623.52521,371.84982 C 624.39613,373.30142 625.41226,374.02722 626.57358,374.02722 L 634.85437,374.02722 C 637.03284,374.02722 638.12209,373.44658 638.12214,372.2853 C 638.12209,371.63152 637.75864,370.68743 637.03178,369.45301 L 637.03178,369.45301 z M 700.67189,367.49168 L 700.67189,350.60763 C 700.67184,350.02702 700.4541,349.51896 700.01867,349.08345 C 699.58313,348.64799 699.03851,348.43025 698.38478,348.43023 L 689.99761,348.43023 C 689.34379,348.43025 688.78088,348.64799 688.30887,349.08345 C 687.83679,349.51896 687.60076,350.02702 687.6008,350.60763 L 687.6008,358.7754 C 687.60076,359.35828 687.38247,359.86744 686.94592,360.30291 C 686.50929,360.73841 685.96521,360.95615 685.31369,360.95613 L 664.28759,360.95613 C 663.6338,360.95615 663.08917,360.72012 662.6537,360.24806 C 662.21821,359.77603 662.00047,359.21311 662.00048,358.55932 L 662.00048,294.6167 C 662.00047,293.96301 661.78273,293.41838 661.34726,292.98282 C 660.91177,292.54742 660.40371,292.32968 659.82308,292.3296 L 651.1068,292.3296 C 650.52616,292.32968 650.0181,292.58398 649.58262,293.09252 C 649.14713,293.60121 648.92939,294.18241 648.92939,294.83611 L 648.92939,371.84982 C 648.92939,372.43046 649.14713,372.93852 649.58262,373.374 C 650.0181,373.80948 650.56272,374.02722 651.2165,374.02722 L 694.13634,374.02722 C 695.95136,374.02722 697.49438,373.39173 698.76541,372.12074 C 700.03634,370.84976 700.67184,369.30674 700.67189,367.49168 L 700.67189,367.49168 z M 763.22163,371.84982 L 763.22163,294.83611 C 763.22158,294.18241 763.00384,293.60121 762.56841,293.09252 C 762.13288,292.58398 761.62371,292.32968 761.0409,292.3296 L 756.0312,292.3296 C 754.57956,292.32968 753.56343,292.94689 752.98283,294.18122 L 738.71168,327.62353 C 738.49447,328.13108 738.02242,328.38484 737.29553,328.38479 C 736.5686,328.38484 736.13312,328.13108 735.98909,327.62353 L 721.71793,294.18122 C 721.13728,292.94689 720.12116,292.32968 718.66957,292.3296 L 713.65654,292.3296 C 713.0759,292.32968 712.56784,292.58398 712.13236,293.09252 C 711.69688,293.60121 711.47914,294.18241 711.47914,294.83611 L 711.47914,371.84982 C 711.47914,372.43046 711.69688,372.93852 712.13236,373.374 C 712.56784,373.80948 713.11247,374.02722 713.76625,374.02722 L 721.06638,374.02722 C 721.71792,374.02722 722.27973,373.80948 722.75179,373.374 C 723.22382,372.93852 723.45985,372.43046 723.45986,371.84982 L 723.45986,320.3234 C 723.45985,319.88908 723.71471,319.67189 724.22445,319.67184 C 724.73194,319.67189 725.09539,319.88908 725.31481,320.3234 L 734.78902,346.1398 C 735.22559,347.23019 736.06109,347.77537 737.29553,347.77534 C 738.67619,347.77537 739.54715,347.23019 739.90842,346.1398 L 749.38596,320.3234 C 749.60532,319.88908 749.96878,319.67189 750.47632,319.67184 C 750.98379,319.81595 751.23755,320.03313 751.23759,320.3234 L 751.23759,371.84982 C 751.23755,372.43046 751.47357,372.93852 751.94566,373.374 C 752.41767,373.80948 752.98058,374.02722 753.63439,374.02722 L 761.0409,374.02722 C 761.62371,374.02722 762.13288,373.80948 762.56841,373.374 C 763.00384,372.93852 763.22158,372.43046 763.22163,371.84982 L 763.22163,371.84982 z M 26.028212,508.01253 L 26.028212,430.99882 C 26.02816,430.34512 25.81042,429.76393 25.37499,429.25523 C 24.939458,428.74669 24.39483,428.49239 23.741104,428.49231 L 16.224896,428.49231 C 15.644212,428.49239 15.135597,428.71013 14.699049,429.14553 C 14.262419,429.58109 14.044125,430.12572 14.044165,430.77941 L 14.044165,476.74763 C 14.044125,477.25738 13.681778,477.51224 12.957123,477.51221 C 12.303309,477.51224 11.831261,477.25738 11.540978,476.74763 L -13.404456,432.52134 C -13.550737,432.2311 -13.642154,431.92249 -13.678709,431.59553 C -13.715289,431.26872 -13.733572,430.99668 -13.73356,430.77941 C -13.733572,430.12572 -13.951313,429.58109 -14.386782,429.14553 C -14.822274,428.71013 -15.330335,428.49239 -15.910967,428.49231 L -23.536876,428.49231 C -24.11752,428.49239 -24.625581,428.74669 -25.061061,429.25523 C -25.496543,429.76393 -25.714283,430.34512 -25.714283,430.99882 L -25.714283,508.01253 C -25.714283,508.59317 -25.496543,509.10123 -25.061061,509.53671 C -24.625581,509.97219 -24.080953,510.18993 -23.427175,510.18993 L -16.127045,510.18993 C -15.475496,510.18993 -14.913692,509.97219 -14.441633,509.53671 C -13.969596,509.10123 -13.733572,508.59317 -13.73356,508.01253 L -13.73356,462.04431 C -13.733572,461.4615 -13.33355,461.17008 -12.533493,461.17003 C -12.025999,461.17008 -11.590519,461.4615 -11.227049,462.04431 L 13.718385,506.1609 C 13.864614,506.37809 13.955477,506.66841 13.990976,507.03186 C 14.026395,507.39532 14.044125,507.68564 14.044165,507.90282 C 14.044125,508.5566 14.262419,509.10123 14.699049,509.53671 C 15.135597,509.97219 15.644212,510.18993 16.224896,510.18993 L 23.847481,510.18993 C 24.430289,510.18993 24.939458,509.97219 25.37499,509.53671 C 25.81042,509.10123 26.02816,508.59317 26.028212,508.01253 L 26.028212,508.01253 z M 88.577955,473.26378 C 88.577904,467.81642 88.032721,462.47873 86.942407,457.25069 C 86.288582,453.90874 85.326202,450.58612 84.055266,447.28283 C 82.784235,443.97966 81.168634,440.89362 79.208458,438.02469 C 77.248198,435.15591 74.851945,432.84997 72.019692,431.10686 C 69.187369,429.3639 66.028194,428.49239 62.542156,428.49231 C 59.056067,428.49239 55.933458,429.38219 53.174321,431.16171 C 50.415151,432.94138 48.055465,435.24733 46.095256,438.07954 C 44.135029,440.9119 42.537158,443.97966 41.301637,447.28283 C 40.066108,450.58612 39.122566,453.90874 38.471009,457.25069 C 37.380643,462.47873 36.835461,467.81642 36.835461,473.26378 C 36.835461,478.92839 37.089768,483.86661 37.598384,488.07845 C 38.106998,492.29034 39.196255,496.15703 40.866156,499.67854 C 42.53605,503.20008 45.132313,506.01408 48.654956,508.12056 C 52.177574,510.22705 56.806636,511.2803 62.542156,511.2803 C 68.27984,511.2803 72.92774,510.24534 76.485869,508.17542 C 80.043919,506.1055 82.676196,503.29149 84.382708,499.73339 C 86.089125,496.17531 87.214948,492.27205 87.760181,488.0236 C 88.305313,483.77519 88.577904,478.85525 88.577955,473.26378 L 88.577955,473.26378 z M 75.506867,473.26378 C 75.506828,477.0402 75.397681,480.2714 75.179425,482.95739 C 74.961092,485.64344 74.434194,488.14884 73.598728,490.4736 C 72.763188,492.7984 71.456191,494.66886 69.677733,496.08499 C 67.89921,497.50115 65.520687,498.20922 62.542156,498.20921 C 59.709842,498.20922 57.422183,497.53716 55.67917,496.19303 C 53.936119,494.84893 52.647406,493.03331 51.813026,490.74619 C 50.978617,488.4591 50.452272,485.93542 50.233991,483.17513 C 50.015683,480.4149 49.906536,477.11111 49.906549,473.26378 C 49.906536,470.21212 50.033967,466.88895 50.288842,463.29424 C 50.54369,459.69963 51.088318,456.01411 51.922728,452.23767 C 52.757107,448.46135 54.045821,445.28444 55.788871,442.70695 C 57.531884,440.12959 59.782976,438.84088 62.542156,438.8408 C 65.301284,438.84088 67.57066,440.12959 69.350291,442.70695 C 71.129858,445.28444 72.455138,448.47963 73.326136,452.29252 C 74.197061,456.10553 74.778257,459.8459 75.069724,463.51365 C 75.361114,467.18148 75.506828,470.43152 75.506867,473.26378 L 75.506867,473.26378 z M 151.1277,453.21834 C 151.12765,450.09579 150.6556,447.06404 149.71155,444.12309 C 148.76741,441.18228 147.38728,438.53172 145.57116,436.1714 C 143.75494,433.81124 141.53987,431.94133 138.92591,430.56167 C 136.31188,429.18218 133.37155,428.49239 130.10492,428.49231 L 101.89172,428.49231 C 101.23794,428.49239 100.65674,428.71013 100.14813,429.14553 C 99.639512,429.58109 99.385204,430.12572 99.385204,430.77941 L 99.385204,436.6634 C 99.385204,438.11507 100.11101,438.84088 101.56261,438.8408 L 101.67231,438.8408 C 103.053,438.84088 103.74334,439.60324 103.74334,441.12791 L 103.74334,508.01253 C 103.74334,508.59317 103.96108,509.10123 104.39656,509.53671 C 104.83204,509.97219 105.37667,510.18993 106.03045,510.18993 L 114.41762,510.18993 C 115.07138,510.18993 115.63429,509.97219 116.10636,509.53671 C 116.57839,509.10123 116.81441,508.59317 116.81443,508.01253 L 116.81443,484.15413 C 116.81441,482.62942 117.57678,481.86705 119.10154,481.86702 L 125.63708,481.86702 C 134.86083,481.86705 141.4152,479.45252 145.30023,474.62341 C 149.18516,469.79437 151.12765,462.65935 151.1277,453.21834 L 151.1277,453.21834 z M 138.05661,454.85389 C 138.05657,456.669 137.78398,458.53891 137.23884,460.46362 C 136.69362,462.38842 135.8764,464.20404 134.78718,465.91046 C 133.69788,467.61697 132.35432,468.97826 130.75648,469.99434 C 129.15858,471.0105 127.41555,471.51856 125.52738,471.51853 L 119.10154,471.51853 C 118.44774,471.51856 117.90311,471.28254 117.46765,470.81045 C 117.03215,470.33844 116.81441,469.77553 116.81443,469.12172 L 116.81443,441.12791 C 116.81441,440.47421 117.06872,439.92958 117.57735,439.49403 C 118.08595,439.05862 118.66715,438.84088 119.32094,438.8408 L 125.52738,438.8408 C 127.85214,438.84088 129.83119,439.27636 131.46455,440.14725 C 133.09785,441.01828 134.38657,442.21668 135.3307,443.74246 C 136.27476,445.26837 136.9651,446.95711 137.40173,448.80867 C 137.83828,450.66036 138.05657,452.67543 138.05661,454.85389 L 138.05661,454.85389 z M 213.67744,507.90282 C 213.67739,507.24905 213.42253,506.55871 212.91286,505.83179 L 212.69678,505.61572 L 205.94183,497.11884 C 205.65147,496.68227 205.47029,496.39139 205.39831,496.24622 C 205.32624,496.10107 205.29023,495.88333 205.29027,495.593 C 205.29023,495.15642 205.54398,494.64781 206.05153,494.06715 C 206.26868,493.84998 206.41384,493.66825 206.48701,493.52197 C 208.01171,491.56287 209.22784,489.83868 210.13542,488.34938 C 211.0429,486.86012 211.75097,485.38968 212.25964,483.93805 C 212.7682,482.48648 213.13165,480.90689 213.35,479.19929 C 213.56824,477.49174 213.67739,475.36808 213.67744,472.82829 L 213.67744,447.88286 C 213.67739,444.32372 212.95104,441.29143 211.49837,438.78595 C 210.04561,436.28063 208.06656,434.26556 205.5612,432.74074 C 203.05576,431.21608 200.27832,430.12683 197.22888,429.47297 C 194.17937,428.81928 190.98363,428.49239 187.64164,428.49231 C 184.30182,428.49239 181.12492,428.83756 178.11092,429.52782 C 175.09689,430.21824 172.37375,431.3075 169.94149,432.79559 C 167.50921,434.28384 165.56673,436.28063 164.11402,438.78595 C 162.6613,441.29143 161.93495,444.32372 161.93495,447.88286 L 161.93495,486.33486 C 161.93495,489.24031 162.47958,492.12689 163.56883,494.99463 C 164.65809,497.86239 166.1651,500.44037 168.08986,502.72857 C 170.01461,505.0168 172.24798,506.83241 174.78996,508.17542 C 177.33191,509.51843 180.01793,510.18993 182.84802,510.18993 L 210.62575,510.18993 C 212.58703,510.18993 213.60426,509.42756 213.67744,507.90282 L 213.67744,507.90282 z M 200.60635,486.11546 C 200.60632,487.27898 200.27943,487.89619 199.62569,487.96709 C 199.11593,487.96711 198.64388,487.71336 198.20954,487.20583 L 193.19652,480.3445 C 192.54493,479.40044 191.96485,478.78267 191.45626,478.49121 C 190.94762,478.19982 190.40299,478.0541 189.82237,478.05407 L 184.70298,478.05407 C 183.82977,478.0541 183.10287,478.25411 182.52224,478.6541 C 181.94158,479.05416 181.65126,479.61762 181.65128,480.3445 C 181.65126,480.92517 181.86956,481.50581 182.30617,482.08643 L 190.80304,494.39625 C 191.0202,494.68659 191.12879,495.12207 191.12882,495.7027 C 190.98252,496.64681 190.51047,497.11886 189.71267,497.11884 L 181.76098,497.11884 C 179.43618,497.11886 177.72916,495.99303 176.63992,493.74137 C 175.55065,491.48974 175.00602,489.02091 175.00604,486.33486 L 175.00604,447.88286 C 175.00602,445.12377 176.42217,442.92697 179.25447,441.29246 C 182.08674,439.6581 184.9556,438.84088 187.86105,438.8408 C 190.83736,438.84088 193.70566,439.6581 196.46596,441.29246 C 199.22618,442.92697 200.60632,445.12377 200.60635,447.88286 L 200.60635,486.11546 z M 276.22719,507.90282 C 276.22713,507.32218 276.00884,506.70498 275.5723,506.0512 C 275.35506,505.83401 275.24647,505.68885 275.24652,505.61572 L 256.18175,475.1154 C 255.60108,474.24226 255.31075,473.47989 255.31079,472.82829 C 255.31075,472.24547 255.49248,471.80888 255.85597,471.51853 C 256.87317,470.72074 258.72479,469.55945 261.41085,468.03467 C 265.11628,465.8562 267.9674,463.87715 269.96423,462.0975 C 271.96097,460.31795 272.95937,458.26687 272.95941,455.94425 L 272.95941,435.68273 C 272.95937,433.5043 272.35989,431.76126 271.16098,430.45363 C 269.96197,429.14616 268.34637,428.49239 266.31417,428.49231 L 226.6621,428.49231 C 226.08145,428.49239 225.57339,428.74669 225.13791,429.25523 C 224.70243,429.76393 224.48469,430.34512 224.48469,430.99882 L 224.48469,508.01253 C 224.48469,508.59317 224.70243,509.10123 225.13791,509.53671 C 225.57339,509.97219 226.11802,510.18993 226.7718,510.18993 L 235.15897,510.18993 C 235.81274,510.18993 236.37565,509.97219 236.84771,509.53671 C 237.31974,509.10123 237.55577,508.59317 237.55578,508.01253 L 237.55578,441.34732 C 237.55577,440.69361 237.77351,440.11241 238.209,439.60373 C 238.64447,439.09518 239.1891,438.84088 239.84289,438.8408 L 256.62055,438.8408 C 257.20116,438.84088 257.70922,439.05862 258.14474,439.49403 C 258.58019,439.92958 258.79793,440.47421 258.79796,441.12791 L 258.79796,455.94425 C 258.79793,457.39591 258.27158,458.7572 257.21893,460.02813 C 256.1662,461.29917 254.91295,461.93466 253.45916,461.93461 L 243.54614,461.93461 C 241.73106,461.93466 240.82354,462.84219 240.82355,464.6572 L 240.82355,472.49919 C 240.82354,473.29927 241.04183,474.09821 241.47844,474.896 L 261.73995,507.90282 C 262.24742,508.77379 262.80978,509.37271 263.42703,509.6996 C 264.0442,510.02649 264.49796,510.18993 264.78832,510.18993 L 273.17549,510.18993 C 275.13677,510.18993 276.154,509.42756 276.22719,507.90282 L 276.22719,507.90282 z M 338.77693,489.60264 C 338.77688,486.40691 338.1774,483.48376 336.97849,480.83317 C 335.77948,478.18264 334.1999,475.8224 332.23972,473.75244 C 330.27946,471.68256 328.2101,469.86695 326.03162,468.3056 C 323.85307,466.74434 321.09392,464.911 317.75415,462.80557 C 312.81424,459.68301 309.18246,457.05074 306.85881,454.90874 C 304.53512,452.76685 303.37328,450.27973 303.3733,447.44738 C 303.37328,444.61515 304.6077,442.47265 307.07655,441.01987 C 309.54536,439.56723 312.26906,438.84088 315.24764,438.8408 C 318.37022,438.84088 320.89391,439.53066 322.8187,440.91017 C 324.74342,442.28982 325.7058,444.50434 325.70584,447.55376 C 325.7058,448.13668 325.92354,448.66413 326.35906,449.13612 C 326.79451,449.60822 327.33913,449.84425 327.99295,449.84419 L 335.39946,449.84419 C 336.05318,449.84425 336.59781,449.58994 337.03334,449.08126 C 337.46877,448.57271 337.68651,447.99152 337.68656,447.33768 C 337.68651,443.77854 337.10587,440.78281 335.94464,438.35047 C 334.78331,435.91828 333.14942,433.97579 331.04298,432.523 C 328.93645,431.07037 326.55793,430.03541 323.9074,429.41812 C 321.25681,428.80099 318.29709,428.49239 315.02824,428.49231 C 311.54436,428.49239 308.31372,428.89186 305.33629,429.69071 C 302.35882,430.48973 299.74427,431.72414 297.49264,433.39396 C 295.24098,435.06394 293.47966,437.22417 292.20868,439.87466 C 290.9377,442.52529 290.3022,445.66673 290.30221,449.29901 C 290.3022,452.42167 290.90113,455.27169 292.09898,457.84907 C 293.29683,460.42654 294.87642,462.73193 296.83775,464.76524 C 298.79907,466.79864 300.86899,468.59597 303.04752,470.15723 C 305.22601,471.71858 307.98517,473.51646 311.32499,475.55088 C 316.26263,478.67353 319.89385,481.3058 322.21867,483.44772 C 324.54341,485.58969 325.7058,488.04024 325.70584,490.79938 C 325.7058,492.54354 325.32462,493.94195 324.56229,494.99463 C 323.79988,496.04733 322.80093,496.84627 321.56544,497.39143 C 320.32989,497.93663 318.98632,498.29953 317.53475,498.48014 C 316.08312,498.66077 314.48524,498.75108 312.74113,498.75107 C 311.14323,498.75108 309.6185,498.64249 308.16691,498.42529 C 306.71529,498.20811 305.37228,497.79092 304.13788,497.17369 C 302.90345,496.5565 301.86849,495.68498 301.033,494.55914 C 300.19748,493.43334 299.7066,491.9629 299.56034,490.14782 C 299.48941,489.42093 299.30824,488.85802 299.01682,488.45908 C 298.72538,488.06019 298.18075,487.86073 297.38293,487.86071 L 289.21184,487.86071 C 288.6312,487.86073 288.12314,488.11449 287.68766,488.62197 C 287.25218,489.1295 287.03444,489.71014 287.03444,490.3639 C 287.03444,494.65002 287.65164,498.17265 288.88606,500.9318 C 290.12048,503.69096 291.86351,505.81462 294.11516,507.30279 C 296.3668,508.79096 299.01736,509.82592 302.06685,510.40767 C 305.11631,510.98942 308.6744,511.2803 312.74113,511.2803 C 316.22717,511.2803 319.5315,510.84426 322.65415,509.97219 C 325.77672,509.10012 328.55471,507.75656 330.98813,505.9415 C 333.42146,504.12644 335.32794,501.83878 336.70756,499.07851 C 338.08709,496.31826 338.77688,493.15964 338.77693,489.60264 L 338.77693,489.60264 z M 401.32667,439.38599 L 401.32667,430.77941 C 401.32662,430.12572 401.07231,429.58109 400.56375,429.14553 C 400.05508,428.71013 399.47389,428.49239 398.82016,428.49231 L 351.87129,428.49231 C 350.34655,428.49239 349.58418,429.25476 349.58418,430.77941 L 349.58418,439.27629 C 349.58418,440.80109 350.34655,441.56346 351.87129,441.56339 L 365.59726,441.56339 C 366.25102,441.56346 366.83221,441.7812 367.34085,442.21662 C 367.84944,442.65216 368.10375,443.19679 368.10377,443.8505 L 368.10377,507.90282 C 368.10375,509.42756 368.86612,510.18993 370.39088,510.18993 L 378.99413,510.18993 C 379.57696,510.18993 380.08612,509.97219 380.52164,509.53671 C 380.95709,509.10123 381.17483,508.5566 381.17486,507.90282 L 381.17486,443.8505 C 381.17483,442.32583 381.9372,441.56346 383.46197,441.56339 L 399.03957,441.56339 C 399.69329,441.56346 400.23792,441.34572 400.67345,440.91017 C 401.10888,440.47476 401.32662,439.9667 401.32667,439.38599 L 401.32667,439.38599 z M 462.78605,507.68342 L 462.78605,430.66971 C 462.786,430.08915 462.56826,429.58109 462.13283,429.14553 C 461.6973,428.71013 461.15267,428.49239 460.49894,428.49231 L 452.11177,428.49231 C 451.45796,428.49239 450.89505,428.71013 450.42304,429.14553 C 449.95095,429.58109 449.71493,430.08915 449.71496,430.66971 L 449.71496,482.19613 C 449.71493,486.48005 448.42566,490.129 445.84716,493.143 C 443.26859,496.15703 439.87394,497.66404 435.66321,497.66403 C 432.61371,497.66404 430.10831,496.68338 428.147,494.72203 C 426.18566,492.76072 425.205,490.25532 425.20501,487.20583 L 425.20501,430.77941 C 425.205,430.12572 424.98726,429.58109 424.55179,429.14553 C 424.1163,428.71013 423.60823,428.49239 423.0276,428.49231 L 414.31133,428.49231 C 413.73069,428.49239 413.22262,428.74669 412.78714,429.25523 C 412.35166,429.76393 412.13392,430.34512 412.13392,430.99882 L 412.13392,487.64131 C 412.13392,490.83707 412.47909,493.8328 413.16944,496.62851 C 413.85978,499.42425 414.94904,501.92965 416.43721,504.14472 C 417.92538,506.35981 419.88615,508.10284 422.31953,509.37382 C 424.7529,510.6448 427.63948,511.2803 430.97929,511.2803 C 434.17502,511.2803 437.33419,510.53566 440.45683,509.04638 C 443.57941,507.5571 446.44716,505.57805 449.06008,503.1092 C 449.4235,502.74576 449.78695,502.56403 450.15044,502.56402 C 450.587,502.56403 450.80529,502.78232 450.80533,503.21891 L 450.80533,507.90282 C 450.80529,508.48347 451.02303,509.00981 451.45855,509.48186 C 451.89399,509.95391 452.43862,510.18993 453.09244,510.18993 L 460.49894,510.18993 C 461.15267,510.18993 461.6973,509.93562 462.13283,509.42701 C 462.56826,508.91839 462.786,508.3372 462.78605,507.68342 L 462.78605,507.68342 z M 525.25268,432.08586 C 525.25263,431.94188 525.28919,431.76126 525.36238,431.544 C 525.36233,431.32468 525.36233,431.14295 525.36238,430.99882 C 525.36233,430.34512 525.1806,429.76393 524.8172,429.25523 C 524.45369,428.74669 523.87305,428.49239 523.07527,428.49231 L 516.53973,428.49231 C 515.95683,428.49239 515.50251,428.67411 515.17677,429.03749 C 514.85095,429.40102 514.61493,429.83651 514.4687,430.34393 L 500.96213,492.76071 C 500.67178,493.85109 500.1266,494.39627 499.32658,494.39625 C 498.30932,494.39627 497.72868,493.85109 497.58465,492.76071 L 485.82001,430.34393 C 485.74686,429.83651 485.54685,429.40102 485.21998,429.03749 C 484.89308,428.67411 484.33072,428.49239 483.5329,428.49231 L 475.79729,428.49231 C 475.0726,428.49239 474.51024,428.78271 474.11022,429.36327 C 473.71019,429.94399 473.51018,430.63433 473.51018,431.4343 C 473.51018,431.43438 473.54675,431.54297 473.61988,431.76008 C 473.61988,431.90642 473.61988,432.01502 473.61988,432.08586 L 486.69097,503.21891 C 487.05441,505.10711 487.88992,506.74099 489.19748,508.12056 C 490.50502,509.50014 492.10289,510.18993 493.9911,510.18993 L 501.28791,510.18993 C 503.10294,510.18993 504.62768,509.51843 505.86212,508.17542 C 507.09651,506.83241 507.96858,505.18024 508.47834,503.21891 L 525.25268,432.08586 z M 586.82176,432.08586 C 586.82171,431.07092 586.63998,430.21824 586.27657,429.52782 C 585.91307,428.83756 585.33243,428.49239 584.53465,428.49231 L 578.87007,428.49231 C 578.36252,428.49239 577.92704,428.69184 577.56362,429.09068 C 577.20013,429.48967 576.98183,429.90742 576.90874,430.34393 L 570.91838,479.14444 C 570.84521,479.43479 570.60919,479.68909 570.21031,479.90736 C 569.81136,480.12568 569.43017,480.23483 569.06675,480.2348 C 568.70326,480.23483 568.32208,480.12568 567.9232,479.90736 C 567.52425,479.68909 567.28823,479.43479 567.21512,479.14444 L 565.03772,462.80557 C 564.89142,461.64434 564.30967,461.0637 563.29247,461.06365 L 560.89566,461.06365 C 560.17094,461.0637 559.5903,461.19058 559.15373,461.44428 C 558.71712,461.69808 558.46337,462.15185 558.39247,462.80557 L 555.56018,479.14444 C 555.48703,479.43479 555.25045,479.68909 554.85045,479.90736 C 554.45041,480.12568 554.10524,480.23483 553.81493,480.2348 C 553.45368,480.23483 553.03703,480.12568 552.565,479.90736 C 552.09294,479.68909 551.85691,479.43479 551.85693,479.14444 L 549.13102,430.66971 C 549.06008,429.21819 548.37085,428.49239 547.06331,428.49231 L 538.24066,428.49231 C 537.44061,428.49239 536.89543,428.80099 536.60511,429.41812 C 536.31479,430.03541 536.16963,430.92465 536.16963,432.08586 L 543.57613,508.33831 C 543.7224,509.57272 544.44931,510.18993 545.75687,510.18993 L 551.63753,510.18993 C 552.21815,510.18993 552.67192,509.99047 552.99882,509.59156 C 553.32569,509.19265 553.56227,508.7749 553.70856,508.33831 L 558.82795,490.79938 C 559.19139,489.56498 560.09892,488.94777 561.55054,488.94775 C 562.9312,488.94777 563.80216,489.56498 564.16343,490.79938 L 568.84735,508.33831 C 569.13764,509.57272 569.86455,510.18993 571.02808,510.18993 L 576.03778,510.18993 C 577.27215,510.18993 577.9625,509.57272 578.10881,508.33831 L 586.82176,432.08586 z M 649.06898,506.1609 L 633.2753,468.90564 C 633.05808,468.32504 632.94949,467.70783 632.94952,467.05401 C 632.94949,466.32714 633.05808,465.7465 633.2753,465.31209 L 648.09164,432.08586 C 648.38191,431.43216 648.52707,430.85152 648.52712,430.34393 C 648.52707,429.1096 647.80016,428.49239 646.34639,428.49231 L 639.70115,428.49231 C 639.04954,428.49239 638.45117,428.71013 637.90603,429.14553 C 637.36081,429.58109 637.01508,429.98056 636.86885,430.34393 L 625.75909,453.43774 C 625.54188,453.9453 625.06983,454.19906 624.34295,454.199 C 623.76228,454.19906 623.36337,453.9453 623.14621,453.43774 L 612.79771,430.34393 C 612.28797,429.1096 611.30731,428.49239 609.85572,428.49231 L 602.55891,428.49231 C 602.19545,428.49239 601.74113,428.60153 601.19595,428.81975 C 600.65077,429.03812 600.37818,429.54618 600.37818,430.34393 C 600.37818,430.70747 600.45131,431.10749 600.59758,431.544 L 614.75904,466.07335 C 615.04934,466.8003 615.1945,467.41751 615.19452,467.92497 C 615.1945,468.50566 615.04934,469.0863 614.75904,469.6669 L 597.87499,507.35764 C 597.72872,507.7211 597.65559,508.04799 597.65559,508.33831 C 597.65559,509.57272 598.49109,510.18993 600.1621,510.18993 L 606.15246,510.18993 C 606.80623,510.18993 607.44172,509.97219 608.05894,509.53671 C 608.67614,509.10123 609.05677,508.70176 609.20083,508.33831 L 622.16554,480.0154 C 622.3827,479.58106 622.78162,479.36387 623.36229,479.36384 C 623.9429,479.36387 624.34292,479.58106 624.56235,480.0154 L 635.78181,507.90282 C 636.0721,508.62974 636.52586,509.19265 637.14311,509.59156 C 637.76028,509.99047 638.32263,510.18993 638.83018,510.18993 L 647.65616,510.18993 C 648.96144,510.18993 649.61411,509.57272 649.61416,508.33831 C 649.61411,507.68453 649.43238,506.95873 649.06898,506.1609 L 649.06898,506.1609 z M 711.61541,432.08586 C 711.61536,432.01502 711.65193,431.86986 711.72512,431.65038 C 711.72506,431.36013 711.72506,431.17841 711.72512,431.10519 C 711.72506,430.38058 711.52505,429.76393 711.12508,429.25523 C 710.72501,428.74669 710.16265,428.49239 709.43801,428.49231 L 705.07987,428.49231 C 703.84541,428.49239 702.88303,428.83756 702.19273,429.52782 C 701.50234,430.21824 700.97545,431.07092 700.61203,432.08586 L 688.08613,470.10238 C 687.79578,470.82933 687.3603,471.19278 686.77968,471.19275 C 686.19901,471.19278 685.76353,470.82933 685.47324,470.10238 L 673.59889,432.08586 C 673.30856,431.21497 672.74565,430.39831 671.91016,429.63586 C 671.07464,428.87357 670.25798,428.49239 669.46016,428.49231 L 662.59551,428.49231 C 661.79768,428.49239 661.19875,428.71013 660.79873,429.14553 C 660.39871,429.58109 660.1987,430.12572 660.1987,430.77941 C 660.1987,431.21608 660.27183,431.65156 660.4181,432.08586 L 668.26009,456.59581 C 668.33322,456.88618 668.47838,457.32167 668.69557,457.90225 C 669.78593,461.31524 670.74886,464.14752 671.58438,466.39913 C 672.41987,468.65082 673.45483,470.90246 674.68926,473.15407 L 679.47955,481.76065 C 679.76985,482.34132 679.91501,482.95853 679.91503,483.61227 L 679.91503,508.33831 C 679.91501,509.57272 680.53333,510.18993 681.76998,510.18993 L 691.13782,510.18993 C 692.37221,510.18993 692.98941,509.57272 692.98945,508.33831 L 692.98945,483.61227 C 692.98941,482.88539 693.13457,482.26818 693.42493,481.76065 L 697.77974,473.15407 C 699.37757,470.0315 701.15717,465.31102 703.11854,458.99262 C 703.48195,457.90452 703.73571,457.10559 703.8798,456.59581 L 711.61541,432.08586 z M 774.28486,508.44801 L 774.28486,498.86077 C 774.28481,497.6995 773.6676,497.11886 772.43324,497.11884 L 739.21033,497.11884 C 738.41027,497.11886 738.01025,496.7554 738.01027,496.02848 C 738.01025,495.81131 738.08339,495.55755 738.22967,495.26722 L 772.75902,440.58273 C 772.8321,440.43875 772.92297,440.18499 773.03161,439.82147 C 773.14015,439.45808 773.19445,439.1312 773.1945,438.8408 L 773.1945,430.34393 C 773.19445,429.1096 772.61381,428.49239 771.45257,428.49231 L 724.2843,428.49231 C 723.12301,428.49239 722.54237,429.1096 722.54237,430.34393 L 722.54237,437.09888 C 722.54237,438.26023 723.15958,438.84088 724.394,438.8408 L 756.52986,438.8408 C 757.25452,438.84088 757.61686,439.20433 757.6169,439.93117 C 757.61686,440.14843 757.54484,440.40218 757.40082,440.69243 L 722.97785,494.50263 C 722.90472,494.64892 722.81385,494.90378 722.70526,495.26722 C 722.59667,495.63069 722.54237,495.95757 722.54237,496.24788 L 722.54237,508.33831 C 722.54237,509.57272 723.12301,510.18993 724.2843,510.18993 L 772.43324,510.18993 C 773.6676,510.18993 774.28481,509.60929 774.28486,508.44801 L 774.28486,508.44801 z M 22.76044,632.84607 L 22.76044,580.34232 C 22.760391,580.12298 22.687257,580.01328 22.541037,580.01321 C 22.396936,580.01328 22.17975,580.12298 21.889477,580.34232 L 10.560314,590.47141 C 10.196823,590.83492 9.960799,591.16181 9.8522413,591.45208 C 9.7436126,591.74245 9.689316,591.96075 9.6893514,592.10696 L 9.6893514,630.99445 C 9.689316,632.5192 8.9258393,633.28157 7.3989191,633.28155 L -10.462464,633.28155 C -11.045336,633.28157 -11.554506,633.06383 -11.989973,632.62833 C -12.425467,632.19286 -12.643208,631.64824 -12.643195,630.99445 L -12.643195,577.29062 C -12.643208,575.76595 -11.880839,575.00359 -10.356087,575.00351 L 8.9247658,575.00351 C 9.5053724,575.00359 10.031717,575.22133 10.503801,575.65674 C 10.975813,576.09229 11.211837,576.63692 11.211874,577.29062 L 11.211874,580.23262 C 11.211837,581.39396 11.720452,581.9746 12.737721,581.97454 C 13.245189,581.9746 13.790371,581.72085 14.373269,581.21328 L 21.344294,574.89381 C 21.77862,574.53043 21.995806,574.09495 21.995854,573.58737 C 21.995806,573.44117 21.960347,573.25945 21.889477,573.04219 C 21.816295,572.89821 21.779728,572.82618 21.779776,572.82611 C 20.762498,570.35513 19.11033,568.37552 16.823267,566.88727 C 14.536119,565.39918 12.012989,564.6551 9.25387,564.65502 L -12.207713,564.65502 C -15.910977,564.6551 -19.087882,565.98038 -21.738438,568.63086 C -24.389003,571.2815 -25.714283,574.4584 -25.714283,578.16159 L -25.714283,632.84607 C -25.714283,636.54934 -24.389003,639.72624 -21.738438,642.3768 C -19.087882,645.02736 -15.910977,646.35264 -12.207713,646.35264 L 9.25387,646.35264 C 12.957085,646.35264 16.13399,645.02736 18.784595,642.3768 C 21.435111,639.72624 22.760391,636.54934 22.76044,632.84607 L 22.76044,632.84607 z M 82.118872,644.06553 L 82.118872,635.56866 C 82.118824,634.04394 81.356455,633.28157 79.831764,633.28155 L 71.334892,633.28155 C 69.810117,633.28157 69.047749,632.5192 69.047784,630.99445 L 69.047784,566.94212 C 69.047749,565.41747 68.284272,564.6551 66.757352,564.65502 L 54.996032,564.65502 C 54.342235,564.6551 53.797053,564.87339 53.360484,565.3099 L 39.418433,577.94551 C 38.981838,578.30903 38.109768,578.74451 36.80222,579.25195 C 35.787203,579.61547 35.007105,579.99666 34.461924,580.39551 C 33.916741,580.79448 33.64415,581.32083 33.64415,581.97454 L 33.64415,588.61979 C 33.64415,589.20048 33.86189,589.70855 34.297372,590.14397 C 34.732852,590.57951 35.27748,590.79725 35.931258,590.79719 L 42.466802,590.79719 C 43.193703,590.79725 43.684034,590.72467 43.937798,590.57945 C 44.191541,590.43435 44.790466,589.92629 45.734574,589.05527 C 45.807696,588.98219 45.952856,588.83703 46.170055,588.61979 L 53.470185,581.97454 C 53.83362,581.61115 54.105657,581.39341 54.286297,581.32132 C 54.466896,581.24936 54.738933,581.21334 55.102409,581.21328 C 55.465842,581.21334 55.701866,581.28592 55.810482,581.43102 C 55.919053,581.57624 55.973349,581.75742 55.973372,581.97454 L 55.973372,630.99445 C 55.973349,631.64824 55.755609,632.19286 55.32015,632.62833 C 54.884647,633.06383 54.376586,633.28157 53.795965,633.28155 L 35.931258,633.28155 C 34.406518,633.28157 33.64415,634.04394 33.64415,635.56866 L 33.64415,644.06553 C 33.64415,645.59027 34.406518,646.35264 35.931258,646.35264 L 79.831764,646.35264 C 81.356455,646.35264 82.118824,645.59027 82.118872,644.06553 L 82.118872,644.06553 z M 141.47731,644.06553 L 141.47731,635.56866 C 141.47726,634.04394 140.71489,633.28157 139.1902,633.28155 L 111.41247,633.28155 C 110.83181,633.28157 110.54149,632.95468 110.54151,632.30089 C 110.54149,631.42994 111.1587,630.30412 112.39314,628.92342 L 112.39314,628.92342 C 114.06191,627.10838 116.60277,624.56641 120.01572,621.29751 C 123.79208,617.66742 126.78781,614.67224 129.00293,612.31196 C 131.21797,609.95176 133.28789,607.28291 135.21269,604.30542 C 137.13741,601.32802 138.6627,598.04197 139.78857,594.44726 C 140.91435,590.85265 141.47726,586.94884 141.47731,582.7358 C 141.47726,579.61326 140.86005,576.89012 139.62568,574.56637 C 138.39122,572.24277 136.70248,570.35513 134.55947,568.90345 C 132.41637,567.45193 130.00184,566.38095 127.31585,565.69053 C 124.6298,565.00027 121.79751,564.6551 118.81898,564.65502 C 115.84261,564.6551 113.01088,565.00027 110.32377,565.69053 C 107.63662,566.38095 105.23982,567.45193 103.13334,568.90345 C 101.02684,570.35513 99.356393,572.24277 98.121981,574.56637 C 96.88756,576.89012 96.270351,579.61326 96.270355,582.7358 L 96.270355,585.7875 C 96.270351,587.31229 97.03272,588.07466 98.557463,588.0746 L 106.94463,588.0746 C 107.88872,588.07466 108.52421,587.76606 108.85111,587.14879 C 109.17798,586.53164 109.34143,585.75099 109.34144,584.80683 C 109.34143,582.12087 110.21294,580.26925 111.95599,579.25195 C 113.69901,578.23479 115.98667,577.72617 118.81898,577.7261 C 121.65124,577.72617 123.95718,578.25252 125.73682,579.30514 C 127.51638,580.3579 128.40618,582.22836 128.40622,584.91653 C 128.40618,587.52948 127.69811,590.28863 126.282,593.194 C 124.86582,596.09948 123.05021,598.96833 120.83516,601.80058 C 118.62005,604.63291 116.25981,607.33777 113.75443,609.91516 C 111.24901,612.49262 108.18014,615.56093 104.54782,619.1201 C 100.41019,623.1137 97.469309,626.05458 95.725172,627.94275 C 94.927342,628.81373 94.27412,629.68525 93.765506,630.5573 C 93.25689,631.42939 93.002583,632.33747 93.002583,633.28155 L 93.002583,644.06553 C 93.002583,645.59027 93.764951,646.35264 95.289691,646.35264 L 139.1902,646.35264 C 140.71489,646.35264 141.47726,645.59027 141.47731,644.06553 L 141.47731,644.06553 z M 200.83574,620.64595 C 200.83569,616.94272 200.69053,614.05614 200.40026,611.98618 C 200.10989,609.9163 199.51041,608.17327 198.60182,606.75708 C 197.69314,605.34098 196.24043,604.17914 194.24368,603.27157 C 192.24686,602.36409 189.46997,601.65546 185.91303,601.14569 C 185.18608,601.00168 184.82263,600.6748 184.82266,600.16503 C 184.82263,599.94789 184.93122,599.69413 185.14844,599.40377 L 199.96478,582.8455 C 200.32597,582.48211 200.56144,582.06436 200.67119,581.59225 C 200.78084,581.12026 200.83569,580.66705 200.83574,580.23262 L 200.83574,566.94212 C 200.83569,565.41747 200.07332,564.6551 198.54863,564.65502 L 157.8062,564.65502 C 157.22555,564.6551 156.71749,564.87284 156.28201,565.30824 C 155.84653,565.7438 155.62879,566.28843 155.62879,566.94212 L 155.62879,572.71641 C 155.62879,574.24122 156.39116,575.00359 157.9159,575.00351 L 185.58392,575.00351 C 186.16453,575.00359 186.67315,575.22133 187.10977,575.65674 C 187.54632,576.09229 187.76462,576.63692 187.76465,577.29062 C 187.76462,578.59824 187.47319,579.54234 186.89037,580.12291 L 170.00632,597.98762 C 169.4988,598.49518 169.15418,599.0398 168.97247,599.62151 C 168.79073,600.2033 168.69986,600.71136 168.69988,601.14569 L 168.69988,606.48449 C 168.69986,607.06517 168.9176,607.59152 169.3531,608.06353 C 169.78857,608.53561 170.29773,608.77164 170.88061,608.7716 L 178.17742,608.7716 C 180.50217,608.77164 182.2995,608.98938 183.56941,609.42482 C 184.83925,609.86034 185.76506,610.56841 186.34685,611.54904 C 186.92856,612.52974 187.3103,613.78244 187.49206,615.30715 C 187.67375,616.83191 187.76462,619.01043 187.76465,621.84269 C 187.76462,625.54596 186.72966,628.37825 184.65977,630.33956 C 182.58982,632.3009 179.6301,633.28157 175.78061,633.28155 C 172.22139,633.28157 169.60684,632.66436 167.93696,631.42993 C 166.26704,630.19553 165.43209,627.83529 165.43211,624.3492 C 165.43209,622.67822 164.70629,621.84271 163.2547,621.84269 L 154.64813,621.84269 C 153.12339,621.84271 152.36102,622.60508 152.36102,624.1298 C 152.36102,631.53854 154.28522,637.09452 158.13364,640.79776 C 161.98204,644.50102 167.86436,646.35264 175.78061,646.35264 C 184.35058,646.35264 190.66893,644.22843 194.73568,639.97999 C 198.80234,635.73156 200.83569,629.28689 200.83574,620.64595 L 200.83574,620.64595 z M 260.19417,629.3589 L 260.19417,621.29751 C 260.19412,620.71689 259.97638,620.20883 259.54095,619.77332 C 259.10542,619.33787 258.56079,619.12013 257.90706,619.1201 L 256.49092,619.1201 C 255.8371,619.12013 255.29247,618.8841 254.85703,618.41203 C 254.42151,617.94001 254.20377,617.41366 254.20381,616.83299 L 254.20381,605.06835 C 254.20377,603.54365 253.44029,602.78128 251.91338,602.78124 L 243.4165,602.78124 C 242.83583,602.78128 242.30949,602.99902 241.83747,603.43446 C 241.36539,603.86999 241.12937,604.41461 241.1294,605.06835 L 241.1294,616.83299 C 241.12937,617.4868 240.91163,618.03143 240.47617,618.46688 C 240.04067,618.90239 239.5326,619.12013 238.95199,619.1201 L 227.07764,619.1201 C 225.55289,619.12013 224.79052,618.46635 224.79054,617.15877 C 224.79052,616.72443 224.93568,616.28895 225.22602,615.85233 L 253.22315,568.68405 C 253.58434,568.03257 253.76496,567.45193 253.765,566.94212 C 253.76496,565.41747 252.78541,564.6551 250.82634,564.65502 L 243.74561,564.65502 C 243.45526,564.6551 243.00149,564.81854 242.38431,565.14535 C 241.76708,565.47232 241.20361,566.07124 240.69392,566.94212 L 213.355,612.36515 C 212.70122,613.52869 212.26518,614.81851 212.04689,616.23462 C 211.8286,617.65079 211.71945,618.72121 211.71945,619.44588 L 211.71945,629.3589 C 211.71945,629.93956 211.93719,630.4659 212.37267,630.93793 C 212.80815,631.41 213.35278,631.64602 214.00656,631.64601 L 238.95199,631.64601 C 239.5326,631.64602 240.04067,631.86431 240.47617,632.30089 C 240.91163,632.73749 241.12937,633.28157 241.1294,633.93311 L 241.1294,644.06553 C 241.12937,644.71931 241.36539,645.26394 241.83747,645.69942 C 242.30949,646.1349 242.83583,646.35264 243.4165,646.35264 L 251.91338,646.35264 C 253.44029,646.35264 254.20377,645.59027 254.20381,644.06553 L 254.20381,633.93311 C 254.20377,632.40839 254.96614,631.64602 256.49092,631.64601 L 257.90706,631.64601 C 259.43175,631.64602 260.19412,630.88365 260.19417,629.3589 L 260.19417,629.3589 z M 319.55261,619.44588 C 319.55257,612.9835 318.89879,607.84583 317.59129,604.03283 C 316.28369,600.21992 314.61324,597.46022 312.57993,595.7537 C 310.54653,594.04729 308.56748,592.9946 306.64275,592.59563 C 304.71796,592.19677 302.55773,591.99731 300.16206,591.99726 C 297.62006,591.99731 295.51413,592.28763 293.84426,592.86822 C 292.17434,593.44892 290.46732,594.21129 288.7232,595.15533 C 287.19844,596.02634 286.07373,596.46182 285.34905,596.46177 C 284.54899,596.46182 284.14897,596.20807 284.14898,595.70051 L 284.14898,577.29062 C 284.14897,575.76595 284.91134,575.00359 286.43609,575.00351 L 317.26551,575.00351 C 318.7902,575.00359 319.55257,574.24122 319.55261,572.71641 L 319.55261,566.94212 C 319.55257,565.41747 318.7902,564.6551 317.26551,564.65502 L 273.365,564.65502 C 271.84026,564.6551 271.07789,565.41747 271.07789,566.94212 L 271.07789,604.84894 C 271.07789,606.37594 271.84026,607.13942 273.365,607.13938 L 284.14898,607.13938 C 285.09306,607.13942 285.92857,607.01199 286.65549,606.75708 C 287.38239,606.50226 288.25335,606.08451 289.26838,605.50383 C 290.43186,604.92323 291.48566,604.46946 292.42977,604.14253 C 293.37385,603.81569 294.49856,603.65225 295.80392,603.6522 C 298.12868,603.65225 300.01743,604.07 301.47017,604.90546 C 302.92285,605.741 304.0121,606.86683 304.73794,608.28293 C 305.46371,609.69911 305.93576,611.27815 306.15408,613.02004 C 306.37234,614.76199 306.48149,616.86848 306.48153,619.3395 C 306.48149,624.2772 305.55512,627.83529 303.70242,630.01378 C 301.84966,632.19231 298.38243,633.28157 293.30074,633.28155 C 289.88779,633.28157 287.50926,632.91811 286.16516,632.19119 C 284.82103,631.46429 284.14897,629.86642 284.14898,627.39757 C 284.14897,626.74381 283.91294,626.19918 283.44091,625.76368 C 282.96885,625.32822 282.4425,625.11048 281.86187,625.11046 L 273.365,625.11046 C 271.84026,625.11048 271.07789,625.87285 271.07789,627.39757 C 271.07789,631.61056 271.51337,634.96975 272.38434,637.47514 C 273.2553,639.98055 274.58058,641.86874 276.36018,643.13972 C 278.13977,644.41071 280.33657,645.26394 282.95058,645.69942 C 285.56456,646.1349 288.97804,646.35264 293.19104,646.35264 C 302.84916,646.35264 309.65729,644.11983 313.61544,639.65421 C 317.57351,635.1886 319.55257,628.45249 319.55261,619.44588 L 319.55261,619.44588 z M 378.91104,619.2298 C 378.911,615.45344 378.65669,612.05825 378.14812,609.04419 C 377.63946,606.03021 376.71365,603.36137 375.37068,601.03765 C 374.02763,598.71402 372.13943,596.89841 369.7061,595.59081 C 367.27269,594.28331 364.20437,593.62954 360.50115,593.62948 C 358.5398,593.62954 356.7059,593.7747 354.99946,594.06496 C 353.29297,594.35534 352.07629,594.6102 351.3494,594.82955 C 350.76874,594.8296 350.47841,594.64787 350.47844,594.28437 C 350.47841,594.21129 350.47841,594.13815 350.47844,594.06496 C 350.55155,593.92096 350.58812,593.81237 350.58814,593.73918 C 350.8053,593.23173 352.1666,590.79946 354.67202,586.44238 C 357.1774,582.08541 360.71831,576.16598 365.29477,568.68405 C 365.65819,568.03257 365.83992,567.45193 365.83996,566.94212 C 365.83992,565.41747 364.85926,564.6551 362.89796,564.65502 L 355.38176,564.65502 C 355.16454,564.6551 354.76508,564.80026 354.18335,565.0905 C 353.60158,565.3809 352.98382,565.99811 352.33006,566.94212 C 351.38594,568.03257 349.89722,570.06647 347.86388,573.04385 C 345.83052,576.02137 343.43426,579.97893 340.67512,584.91653 C 337.91595,589.85426 335.5197,595.37312 333.48635,601.47313 C 331.453,607.57324 330.43632,613.49212 330.43632,619.2298 C 330.43632,622.71589 331.01752,626.09281 332.17991,629.36056 C 333.3423,632.62835 334.99447,635.55094 337.13642,638.12836 C 339.27836,640.7058 341.87407,642.72086 344.92355,644.17357 C 347.97301,645.62629 351.31392,646.35264 354.94627,646.35264 C 358.72263,646.35264 362.09955,645.57199 365.07703,644.01068 C 368.05445,642.44938 370.57758,640.36173 372.64643,637.74773 C 374.7152,635.13375 376.2765,632.21059 377.33035,628.97827 C 378.3841,625.74597 378.911,622.49649 378.91104,619.2298 L 378.91104,619.2298 z M 365.83996,619.2298 C 365.83992,623.2234 364.95012,626.56375 363.17055,629.25086 C 361.39092,631.938 358.57636,633.28157 354.72687,633.28155 C 350.87954,633.28157 348.04781,631.938 346.23166,629.25086 C 344.41548,626.56375 343.5074,623.2234 343.50741,619.2298 C 343.5074,617.12223 343.74342,614.99746 344.21548,612.85549 C 344.68752,610.71357 345.35902,608.73507 346.23,606.91997 C 346.59344,606.12219 347.70098,605.55983 349.55262,605.2329 C 351.40423,604.90605 353.12898,604.74261 354.72687,604.74257 C 356.32472,604.74261 358.01345,604.90605 359.79308,605.2329 C 361.57265,605.55983 362.67964,606.12219 363.11404,606.91997 C 364.05811,608.73507 364.74845,610.71357 365.18507,612.85549 C 365.62163,614.99746 365.83992,617.12223 365.83996,619.2298 L 365.83996,619.2298 z M 438.26947,577.94551 L 438.26947,566.94212 C 438.26942,566.36156 438.01512,565.83522 437.50655,565.36309 C 436.99789,564.89112 436.41669,564.6551 435.76296,564.65502 L 392.08186,564.65502 C 391.42808,564.6551 390.88345,564.89112 390.44797,565.36309 C 390.01249,565.83522 389.79475,566.36156 389.79475,566.94212 L 389.79475,585.24231 C 389.79475,586.76711 390.55712,587.52948 392.08186,587.52942 L 400.57873,587.52942 C 402.10346,587.52948 402.86583,586.76711 402.86584,585.24231 L 402.86584,580.01321 C 402.86583,578.48854 403.62819,577.72617 405.15295,577.7261 L 420.18536,577.7261 C 421.71007,577.72617 422.47244,578.48854 422.47247,580.01321 C 422.47244,581.2477 422.29182,582.26493 421.93061,583.06491 L 421.93061,583.17461 L 400.68843,622.38787 C 400.1787,623.25886 399.86954,624.27553 399.76096,625.4379 C 399.65235,626.60031 399.59806,628.0159 399.59807,629.68468 L 399.59807,644.06553 C 399.59806,645.59027 400.36043,646.35264 401.88517,646.35264 L 411.58211,646.35264 C 412.16273,646.35264 412.67079,646.1349 413.1063,645.69942 C 413.54176,645.26394 413.7595,644.71931 413.75952,644.06553 L 413.75952,629.68468 C 413.7595,627.289 414.44984,624.85673 415.83055,622.38787 L 432.05971,592.54244 C 432.27685,592.10591 432.49515,591.70589 432.71459,591.34238 C 434.38334,588.36609 435.72635,585.78866 436.74363,583.61009 C 437.76081,581.43164 438.26942,579.54345 438.26947,577.94551 L 438.26947,577.94551 z M 497.6279,619.88136 C 497.62785,617.41255 497.41011,615.23404 496.97468,613.34582 C 496.53915,611.45766 495.97624,609.87807 495.28594,608.60705 C 494.59555,607.3361 493.88748,606.31943 493.16173,605.55702 C 492.43588,604.79469 491.56436,603.97802 490.54717,603.10702 C 489.09331,601.79951 488.3664,600.78339 488.36644,600.05865 C 488.3664,599.25865 488.94815,598.20486 490.11169,596.89726 C 491.4192,595.37257 492.45416,593.75697 493.21658,592.05045 C 493.9789,590.34404 494.36008,587.85748 494.36013,584.59075 C 494.36008,577.25523 492.74393,572.09872 489.51166,569.12119 C 486.27931,566.14382 480.88677,564.6551 473.33403,564.65502 C 465.85437,564.6551 460.49895,566.2164 457.26776,569.33893 C 454.03655,572.46162 452.42095,577.72617 452.42095,585.13261 C 452.42095,588.47468 452.82042,591.0172 453.61936,592.76018 C 454.41829,594.50327 455.47153,596.10059 456.77909,597.55214 C 457.86723,598.7866 458.4113,599.80273 458.41131,600.60051 C 458.4113,601.32746 457.6855,602.30813 456.23391,603.5425 C 455.21667,604.34259 454.34515,605.10551 453.61936,605.83127 C 452.89355,606.55711 452.18548,607.53722 451.49514,608.7716 C 450.80479,610.00606 450.24188,611.54908 449.8064,613.40067 C 449.37092,615.25233 449.15318,617.41255 449.15318,619.88136 C 449.15318,622.64276 449.3892,625.43903 449.86125,628.27019 C 450.3333,631.10139 451.36826,633.89711 452.96613,636.65737 C 454.564,639.41764 457.03283,641.72358 460.37264,643.5752 C 463.71242,645.42683 468.03288,646.35264 473.33403,646.35264 C 478.70826,646.35264 483.06584,645.42683 486.40678,643.5752 C 489.74764,641.72358 492.21703,639.39991 493.81495,636.60418 C 495.41277,633.80847 496.44773,631.01274 496.91983,628.21701 C 497.39183,625.4213 497.62785,622.64276 497.6279,619.88136 L 497.6279,619.88136 z M 481.28904,584.59075 C 481.28901,588.07466 480.70781,590.74295 479.54545,592.59563 C 478.38303,594.44842 476.31256,595.37478 473.33403,595.37473 C 470.35766,595.37478 468.30658,594.53928 467.18078,592.86822 C 466.05493,591.19727 465.49202,588.61874 465.49204,585.13261 C 465.49202,581.71974 466.05493,579.17833 467.18078,577.50836 C 468.30658,575.83853 470.35766,575.00359 473.33403,575.00351 C 476.38569,575.00359 478.47445,575.76595 479.6003,577.29062 C 480.7261,578.81543 481.28901,581.2488 481.28904,584.59075 L 481.28904,584.59075 z M 484.55681,619.88136 C 484.55678,624.09436 483.66698,627.38097 481.88741,629.74119 C 480.10778,632.10145 477.25666,633.28157 473.33403,633.28155 C 469.4867,633.28157 466.67325,632.10145 464.89367,629.74119 C 463.11405,627.38097 462.22425,624.09436 462.22427,619.88136 C 462.22425,615.52436 463.11405,612.07542 464.89367,609.53452 C 466.67325,606.9937 469.4867,605.72327 473.33403,605.72323 C 477.18352,605.72327 480.01636,606.9937 481.83256,609.53452 C 483.6487,612.07542 484.55678,615.52436 484.55681,619.88136 L 484.55681,619.88136 z M 556.98633,591.88756 C 556.98628,582.73697 555.15239,575.91056 551.48464,571.4083 C 547.81681,566.90619 541.55275,564.6551 532.69246,564.65502 C 524.34184,564.6551 518.22405,567.06963 514.33908,571.89863 C 510.4541,576.72778 508.51161,583.39075 508.51161,591.88756 C 508.51161,594.79303 508.74763,597.60704 509.21968,600.32958 C 509.69173,603.05221 510.52668,605.53933 511.72453,607.79094 C 512.92238,610.04262 514.57454,611.85823 516.68104,613.23778 C 518.78752,614.61739 521.40206,615.30718 524.52469,615.30715 C 526.04941,615.30718 527.48328,614.81684 528.82631,613.83615 C 530.1693,612.85552 531.31286,611.71197 532.25698,610.40549 C 533.20105,609.09908 533.94569,607.95553 534.49089,606.97483 C 535.03605,605.9942 535.38067,605.28558 535.52475,604.84894 C 535.59785,604.70493 535.63442,604.55977 535.63445,604.41346 C 535.63442,603.906 535.3441,603.65225 534.76349,603.6522 C 532.58495,603.65225 530.75161,603.52537 529.26346,603.27157 C 527.77527,603.01786 526.44999,602.50925 525.28761,601.74572 C 524.1252,600.98229 523.21712,599.80217 522.56336,598.20536 C 521.90957,596.60865 521.58268,594.50271 521.5827,591.88756 C 521.58268,587.67464 522.41763,584.26116 524.08755,581.6471 C 525.75743,579.03317 528.62573,577.72617 532.69246,577.7261 C 537.19573,577.72617 540.19201,578.90629 541.68132,581.26647 C 543.17057,583.62677 543.91521,587.16713 543.91524,591.88756 C 543.91521,594.86395 543.53347,597.84085 542.77003,600.81825 C 542.00652,603.79574 540.86241,606.37483 539.3377,608.55552 L 516.4633,641.44932 C 515.73638,642.46656 515.37293,643.41065 515.37293,644.28161 C 515.37293,645.6623 516.35359,646.35264 518.31492,646.35264 L 528.88283,646.35264 C 529.53658,646.35264 530.09949,646.1349 530.57156,645.69942 C 531.04359,645.26394 531.4968,644.71931 531.9312,644.06553 L 551.43145,614.65559 C 553.53679,611.60393 554.98894,608.15388 555.78793,604.30542 C 556.58681,600.45706 556.98628,596.31777 556.98633,591.88756 L 556.98633,591.88756 z M 619.61256,571.19056 C 619.61251,569.37558 618.86787,567.83256 617.37864,566.56149 C 615.88932,565.29059 614.09199,564.6551 611.98665,564.65502 L 607.19303,564.65502 C 605.16075,564.6551 603.38171,565.29059 601.85589,566.56149 C 600.33002,567.83256 599.56709,569.37558 599.56712,571.19056 C 599.56709,573.00569 600.33002,574.54871 601.85589,575.81963 C 603.38171,577.09068 605.16075,577.72617 607.19303,577.7261 L 611.98665,577.7261 C 614.09199,577.72617 615.88932,577.09068 617.37864,575.81963 C 618.86787,574.54871 619.61251,573.00569 619.61256,571.19056 L 619.61256,571.19056 z M 587.91218,571.19056 C 587.91216,569.37558 587.16808,567.83256 585.67992,566.56149 C 584.19174,565.29059 582.39496,564.6551 580.2896,564.65502 L 575.49598,564.65502 C 573.38838,564.6551 571.59049,565.29059 570.10232,566.56149 C 568.61415,567.83256 567.87007,569.37558 567.87007,571.19056 C 567.87007,573.00569 568.61415,574.54871 570.10232,575.81963 C 571.59049,577.09068 573.38838,577.72617 575.49598,577.7261 L 580.2896,577.7261 C 582.39496,577.72617 584.19174,577.09068 585.67992,575.81963 C 587.16808,574.54871 587.91216,573.00569 587.91218,571.19056 L 587.91218,571.19056 z M 619.17708,642.21391 L 604.90593,583.71647 C 604.61557,582.55525 604.03493,581.81116 603.164,581.48421 C 602.293,581.15739 601.27577,580.99394 600.11231,580.99388 L 587.15092,580.99388 C 586.27994,580.99394 585.26326,581.30255 584.10089,581.91969 C 582.93848,582.53696 582.21213,583.46277 581.92182,584.69713 L 568.19585,642.21391 C 568.19585,642.35796 568.16039,642.61172 568.08947,642.97517 C 568.08947,643.19236 568.08947,643.37409 568.08947,643.52035 C 568.08947,644.61072 568.4158,645.35536 569.06847,645.75427 C 569.72114,646.15319 570.41093,646.35264 571.13784,646.35264 L 576.58302,646.35264 C 577.16587,646.35264 577.7659,646.22577 578.38312,645.97201 C 579.00032,645.71826 579.34438,645.37309 579.41531,644.9365 L 581.70574,635.13318 C 581.92291,634.47942 582.17667,634.00737 582.467,633.71704 C 582.75731,633.42673 583.26592,633.28157 583.99285,633.28155 L 602.18334,633.28155 C 603.56399,633.28157 604.36292,633.89878 604.58015,635.13318 L 606.75755,644.9365 C 606.9747,645.88059 607.99193,646.35264 609.80925,646.35264 L 615.79961,646.35264 C 618.19526,646.35264 619.39311,645.40855 619.39316,643.52035 C 619.39311,643.1569 619.32108,642.72142 619.17708,642.21391 L 619.17708,642.21391 z M 601.63815,621.95239 C 601.63812,623.3331 600.83918,624.02344 599.24134,624.02342 L 586.93152,624.02342 C 585.40676,624.02344 584.64439,623.47826 584.64441,622.38787 C 584.64439,622.3879 584.64439,622.31587 584.64441,622.17179 C 584.64439,622.09868 584.64439,622.02555 584.64441,621.95239 L 591.50906,592.86822 C 591.65309,591.92418 592.23373,591.45213 593.25098,591.45208 C 594.12192,591.45213 594.70256,591.92418 594.99291,592.86822 L 601.63815,621.95239 z M 682.16231,571.19056 C 682.16225,569.37558 681.41762,567.83256 679.92839,566.56149 C 678.43906,565.29059 676.64173,564.6551 674.5364,564.65502 L 669.74278,564.65502 C 667.71049,564.6551 665.93145,565.29059 664.40564,566.56149 C 662.87976,567.83256 662.11684,569.37558 662.11687,571.19056 C 662.11684,573.00569 662.87976,574.54871 664.40564,575.81963 C 665.93145,577.09068 667.71049,577.72617 669.74278,577.7261 L 674.5364,577.7261 C 676.64173,577.72617 678.43906,577.09068 679.92839,575.81963 C 681.41762,574.54871 682.16225,573.00569 682.16231,571.19056 L 682.16231,571.19056 z M 650.46193,571.19056 C 650.4619,569.37558 649.71782,567.83256 648.22967,566.56149 C 646.74148,565.29059 644.94471,564.6551 642.83934,564.65502 L 638.04572,564.65502 C 635.93812,564.6551 634.14024,565.29059 632.65207,566.56149 C 631.1639,567.83256 630.41981,569.37558 630.41981,571.19056 C 630.41981,573.00569 631.1639,574.54871 632.65207,575.81963 C 634.14024,577.09068 635.93812,577.72617 638.04572,577.7261 L 642.83934,577.7261 C 644.94471,577.72617 646.74148,577.09068 648.22967,575.81963 C 649.71782,574.54871 650.4619,573.00569 650.46193,571.19056 L 650.46193,571.19056 z M 682.16231,616.83299 C 682.16225,612.476 681.61707,608.191 680.52676,603.97798 C 679.87293,601.29201 678.91055,598.62372 677.63962,595.9731 C 676.36859,593.32259 674.75298,590.85321 672.79281,588.56494 C 670.83255,586.27678 668.4363,584.44288 665.60404,583.06324 C 662.77172,581.68373 659.61254,580.99394 656.12651,580.99388 C 652.64042,580.99394 649.51781,581.68373 646.75867,583.06324 C 643.9995,584.44288 641.63982,586.27678 639.67961,588.56494 C 637.71938,590.85321 636.12151,593.32259 634.88599,595.9731 C 633.65046,598.62372 632.70692,601.29201 632.05536,603.97798 C 630.96499,608.191 630.41981,612.476 630.41981,616.83299 C 630.41981,621.3341 630.67412,625.27337 631.18273,628.65082 C 631.69135,632.02831 632.78061,635.13319 634.45051,637.96547 C 636.1204,640.79777 638.71666,643.04886 642.23931,644.71876 C 645.76192,646.38866 650.39099,647.2236 656.12651,647.2236 C 661.86419,647.2236 666.51209,646.38866 670.07022,644.71876 C 673.62827,643.04886 676.26055,640.79777 677.96706,637.96547 C 679.67348,635.13319 680.7993,632.01058 681.34453,628.59764 C 681.88966,625.18472 682.16225,621.26318 682.16231,616.83299 L 682.16231,616.83299 z M 669.09122,616.83299 C 669.09118,619.80936 668.98203,622.38679 668.76378,624.56528 C 668.54544,626.74381 668.01854,628.75944 667.18308,630.61215 C 666.34754,632.4649 665.04054,633.95363 663.26208,635.07833 C 661.48356,636.20306 659.10504,636.76541 656.12651,636.7654 C 653.29419,636.76541 651.00653,636.23907 649.26352,635.18637 C 647.52047,634.13369 646.23176,632.68153 645.39738,630.82989 C 644.56297,628.97828 644.03662,626.94493 643.81834,624.72983 C 643.60003,622.51477 643.49089,619.8825 643.4909,616.83299 C 643.49089,614.43732 643.61832,611.89591 643.87319,609.20874 C 644.12804,606.52165 644.67267,603.81624 645.50708,601.0925 C 646.34146,598.36885 647.63017,596.08119 649.37322,594.22952 C 651.11623,592.37794 653.36733,591.45213 656.12651,591.45208 C 658.88563,591.45213 661.15501,592.37794 662.93464,594.22952 C 664.71421,596.08119 666.03949,598.40487 666.91049,601.20054 C 667.78141,603.99631 668.36261,606.73773 668.65407,609.42482 C 668.94546,612.11199 669.09118,614.58137 669.09122,616.83299 L 669.09122,616.83299 z M 743.62168,571.19056 C 743.62163,569.37558 742.87755,567.83256 741.38943,566.56149 C 739.90121,565.29059 738.10333,564.6551 735.99577,564.65502 L 731.20548,564.65502 C 729.17098,564.6551 727.39138,565.29059 725.86668,566.56149 C 724.34191,567.83256 723.57954,569.37558 723.57957,571.19056 C 723.57954,573.00569 724.34191,574.54871 725.86668,575.81963 C 727.39138,577.09068 729.17098,577.72617 731.20548,577.7261 L 735.99577,577.7261 C 738.10333,577.72617 739.90121,577.09068 741.38943,575.81963 C 742.87755,574.54871 743.62163,573.00569 743.62168,571.19056 L 743.62168,571.19056 z M 713.01167,571.19056 C 713.01165,569.37558 712.26756,567.83256 710.77941,566.56149 C 709.29122,565.29059 707.49445,564.6551 705.38908,564.65502 L 700.59546,564.65502 C 698.48786,564.6551 696.68998,565.29059 695.20181,566.56149 C 693.71364,567.83256 692.96955,569.37558 692.96955,571.19056 C 692.96955,573.00569 693.71364,574.54871 695.20181,575.81963 C 696.68998,577.09068 698.48786,577.72617 700.59546,577.7261 L 705.38908,577.7261 C 707.49445,577.72617 709.29122,577.09068 710.77941,575.81963 C 712.26756,574.54871 713.01165,573.00569 713.01167,571.19056 L 713.01167,571.19056 z M 743.62168,644.28161 L 743.62168,582.7358 C 743.62163,581.57458 742.85926,580.99394 741.33458,580.99388 L 732.94741,580.99388 C 732.29359,580.99394 731.73068,581.15739 731.25867,581.48421 C 730.78658,581.81116 730.55056,582.22836 730.5506,582.7358 L 730.5506,623.91372 C 730.55056,627.3998 729.26129,630.34069 726.68279,632.73637 C 724.10422,635.13208 720.70958,636.32993 716.49884,636.32992 C 713.44935,636.32993 710.94395,635.54928 708.98264,633.98796 C 707.02129,632.42667 706.04063,630.4116 706.04064,627.94275 L 706.04064,582.8455 C 706.04063,582.33806 705.82289,581.90258 705.38742,581.53906 C 704.95193,581.17567 704.44387,580.99394 703.86324,580.99388 L 695.14696,580.99388 C 694.56632,580.99394 694.05826,581.19395 693.62278,581.59391 C 693.1873,581.994 692.96955,582.44776 692.96955,582.9552 L 692.96955,628.27186 C 692.96955,630.81163 693.31473,633.20732 694.00507,635.45896 C 694.69541,637.71062 695.78467,639.72624 697.27284,641.50583 C 698.76101,643.28544 700.72178,644.6833 703.15516,645.69942 C 705.58853,646.71554 708.47511,647.2236 711.81493,647.2236 C 715.01065,647.2236 718.15154,646.62468 721.23761,645.42683 C 724.32362,644.22898 727.20966,642.64939 729.89571,640.68806 C 730.25913,640.39775 730.58602,640.25259 730.87638,640.25258 C 731.38606,640.25259 731.64092,640.43431 731.64096,640.79776 L 731.64096,644.50102 C 731.64092,645.00852 731.85866,645.44401 732.29418,645.80746 C 732.72962,646.17091 733.27425,646.35264 733.92807,646.35264 L 741.33458,646.35264 C 741.9883,646.35264 742.53293,646.15319 742.96846,645.75427 C 743.40389,645.35536 743.62163,644.86447 743.62168,644.28161 L 743.62168,644.28161 z "
       style="font-size:108.93016815px;font-style:normal;font-weight:bold;fill:#000000;fill-opacity:1;stroke:none;stroke-width:1px;stroke-linecap:butt;stroke-linejoin:miter;stroke-opacity:1;font-family:FE"
       id="text2160" />
  </g>
</svg>
